<svg width="20" height="20" viewBox="0 0 20 20" fill="none" xmlns="http://www.w3.org/2000/svg">
<path d="M13.87 17.7777H6.12981C5.19954 17.7777 4.44434 16.9395 4.44434 15.9107V4.44434H15.5554V15.9107C15.5554 16.9395 14.7988 17.7777 13.87 17.7777ZM5.67842 5.81132V15.9091C5.67842 16.1847 5.88097 16.4091 6.12981 16.4091H13.8685C14.1174 16.4091 14.3199 16.1847 14.3199 15.9091V5.81132H5.67842Z" fill="#EA7172"/>
<path d="M16.0298 5.69531H3.9686C3.61745 5.69531 3.33325 5.38445 3.33325 5.00035C3.33325 4.61626 3.61745 4.3054 3.9686 4.3054H16.0312C16.3824 4.3054 16.6666 4.61626 16.6666 5.00035C16.6666 5.38445 16.3809 5.69531 16.0298 5.69531ZM11.5868 3.61207H8.41155C8.0604 3.61207 7.77621 3.30122 7.77621 2.91712C7.77621 2.53303 8.0604 2.22217 8.41155 2.22217H11.5853C11.9365 2.22217 12.2207 2.53303 12.2207 2.91712C12.2207 3.30122 11.9365 3.61207 11.5868 3.61207ZM8.41155 13.3333C8.0604 13.3333 7.77621 13.0224 7.77621 12.6383V8.47186C7.77621 8.08777 8.0604 7.77691 8.41155 7.77691C8.76271 7.77691 9.0469 8.08777 9.0469 8.47186V12.6383C9.0469 13.0224 8.76271 13.3333 8.41155 13.3333ZM11.5868 13.3333C11.2356 13.3333 10.9514 13.0224 10.9514 12.6383V8.47186C10.9514 8.08777 11.2356 7.77691 11.5868 7.77691C11.9379 7.77691 12.2221 8.08777 12.2221 8.47186V12.6383C12.2207 13.0224 11.9365 13.3333 11.5868 13.3333Z" fill="#EA7172"/>
</svg>
