<svg width="20" height="21" viewBox="0 0 20 21" fill="none" xmlns="http://www.w3.org/2000/svg">
<path d="M9.99 2.44C7.85501 2.44 5.80746 3.28813 4.29779 4.79779C2.78813 6.30746 1.94 8.35501 1.94 10.49C1.94 12.625 2.78813 14.6725 4.29779 16.1822C5.80746 17.6919 7.85501 18.54 9.99 18.54C11.0471 18.54 12.0939 18.3318 13.0706 17.9272C14.0473 17.5227 14.9347 16.9297 15.6822 16.1822C16.4297 15.4347 17.0227 14.5473 17.4272 13.5706C17.8318 12.5939 18.04 11.5471 18.04 10.49C18.04 9.43286 17.8318 8.38607 17.4272 7.4094C17.0227 6.43273 16.4297 5.5453 15.6822 4.79779C14.9347 4.05028 14.0473 3.45732 13.0706 3.05277C12.0939 2.64822 11.0471 2.44 9.99 2.44Z" stroke="#D85A5B" stroke-width="1.5" stroke-linecap="round" stroke-linejoin="round"/>
<path d="M9.98999 6.53V11.12" stroke="#D85A5B" stroke-width="1.5" stroke-linecap="round" stroke-linejoin="round"/>
<path d="M9.99 15.39C9.69561 15.39 9.41328 15.2731 9.20512 15.0649C8.99695 14.8567 8.88 14.5744 8.88 14.28C8.88 13.9856 8.99695 13.7033 9.20512 13.4951C9.41328 13.2869 9.69561 13.17 9.99 13.17C10.2844 13.17 10.5667 13.2869 10.7749 13.4951C10.9831 13.7033 11.1 13.9856 11.1 14.28C11.1 14.5744 10.9831 14.8567 10.7749 15.0649C10.5667 15.2731 10.2844 15.39 9.99 15.39Z" fill="#D85A5B"/>
</svg>
