<svg width="20" height="20" viewBox="0 0 20 20" fill="none" xmlns="http://www.w3.org/2000/svg">
<path d="M10.6249 17.5C10.6249 17.6658 10.5591 17.8247 10.4419 17.9419C10.3246 18.0592 10.1657 18.125 9.99992 18.125H6.66658C5.61718 18.1237 4.61113 17.7062 3.86908 16.9642C3.12704 16.2221 2.70958 15.2161 2.70825 14.1667V5.83333C2.70958 4.78392 3.12704 3.77788 3.86908 3.03583C4.61113 2.29379 5.61718 1.87632 6.66658 1.875H9.99992C10.1657 1.875 10.3246 1.94085 10.4419 2.05806C10.5591 2.17527 10.6249 2.33424 10.6249 2.5C10.6249 2.66576 10.5591 2.82473 10.4419 2.94194C10.3246 3.05915 10.1657 3.125 9.99992 3.125H6.66658C5.94856 3.12588 5.2602 3.41151 4.75248 3.91923C4.24476 4.42695 3.95913 5.11531 3.95825 5.83333V14.1667C3.95913 14.8847 4.24476 15.5731 4.75248 16.0808C5.2602 16.5885 5.94856 16.8741 6.66658 16.875H9.99992C10.1657 16.875 10.3246 16.9408 10.4419 17.0581C10.5591 17.1753 10.6249 17.3342 10.6249 17.5ZM17.1083 9.55833L13.7749 6.225C13.7172 6.16533 13.6482 6.11775 13.572 6.08503C13.4957 6.05231 13.4137 6.03511 13.3307 6.03443C13.2477 6.03375 13.1654 6.0496 13.0886 6.08106C13.0118 6.11252 12.9421 6.15897 12.8834 6.21768C12.8248 6.27639 12.7784 6.34619 12.747 6.42302C12.7156 6.49984 12.6998 6.58215 12.7006 6.66513C12.7014 6.74812 12.7186 6.83012 12.7514 6.90636C12.7842 6.9826 12.8319 7.05154 12.8916 7.10917L15.1574 9.375H8.33325C8.16749 9.375 8.00852 9.44085 7.89131 9.55806C7.7741 9.67527 7.70825 9.83424 7.70825 10C7.70825 10.1658 7.7741 10.3247 7.89131 10.4419C8.00852 10.5592 8.16749 10.625 8.33325 10.625H15.1574L12.8916 12.8917C12.7777 13.0095 12.7146 13.1673 12.716 13.3312C12.7173 13.4951 12.783 13.6519 12.8988 13.7678C13.0146 13.8837 13.1713 13.9495 13.3352 13.951C13.4991 13.9526 13.657 13.8896 13.7749 13.7758L17.1083 10.4425C17.1663 10.3845 17.2124 10.3155 17.2438 10.2397C17.2753 10.1638 17.2915 10.0825 17.2915 10.0004C17.2915 9.91831 17.2753 9.837 17.2438 9.76115C17.2124 9.68529 17.1663 9.61638 17.1083 9.55833Z" fill="#222223"/>
</svg>
